<?xml version="1.0" standalone="no"?><!DOCTYPE svg PUBLIC "-//W3C//DTD SVG 1.1//EN" "http://www.w3.org/Graphics/SVG/1.1/DTD/svg11.dtd"><svg t="1730082620794" class="icon" viewBox="0 0 1024 1024" version="1.1" xmlns="http://www.w3.org/2000/svg" p-id="9099" xmlns:xlink="http://www.w3.org/1999/xlink" width="200" height="200"><path d="M0.017704 0h1019.751037v297.427386c-8.141012-3.84956-15.228282-9.517676-21.244813-16.995851h-67.983402c-15.270772 22.060614-26.607004 19.230805-33.991702-8.497925-5.668116 22.663967-11.327734 22.663967-16.99585 0-5.668116 22.663967-11.327734 22.663967-16.995851 0-5.319701 21.168332-12.406971 21.168332-21.244813 0a2049.164216 2049.164216 0 0 0-8.497925 263.435685c2.566373 21.754689-0.271934 41.580349-8.497926 59.485477 1.419154-141.660415 0-283.295336-4.248962-424.896266L807.320609 157.211618a10411.564614 10411.564614 0 0 0-594.854772 0L199.718949 169.958506a10626.655602 10626.655602 0 0 0-4.248963 424.896266c-8.166506-14.998838-11.004813-31.994689-8.497925-50.987552 1.410656-93.519668 0-186.996846-4.248963-280.431535-26.564515 30.47356-56.307253 33.303369-89.228216 8.497925-8.837842 21.168332-15.925112 21.168332-21.244813 0-5.668116 22.663967-11.327734 22.663967-16.99585 0-5.668116 22.663967-11.327734 22.663967-16.995851 0-15.925112 20.055104-28.672 17.225295-38.240664-8.497925v-263.435685z" fill="#5086F6" p-id="9100"></path><path d="M824.316459 594.854772c-7.7841 44.529129-23.369295 87.018755-46.738589 127.468879a1132.263568 1132.263568 0 0 0-80.73029 84.979254c-56.800133 45.421411-119.115419 82.251419-186.954357 110.473029-65.349046-24.53351-124.834523-58.525212-178.456432-101.975104a1824.351602 1824.351602 0 0 1-97.726141-110.473029c-18.899386-35.495834-31.646274-72.317344-38.240664-110.473029-1.419154-141.660415 0-283.295336 4.248963-424.896266l12.746888-12.746888c198.282091-5.668116 396.57268-5.668116 594.854772 0l12.746888 12.746888c4.248963 141.600929 5.668116 283.235851 4.248962 424.896266z" fill="#FCFDFE" p-id="9101"></path><path d="M739.337206 603.352697c1.410656-62.374772 0-124.698556-4.248963-186.954357l-8.497925-16.99585c-6.033527 12.517444-15.942108 18.18556-29.742738 16.99585-1.6401-33.558307-5.889062-33.558307-12.746888 0-9.466689-32.292116-20.794423-32.292116-33.991702 0-7.138257-25.187851-15.636183-28.01766-25.493776-8.497925-5.668116-45.319436-11.327734-45.319436-16.99585 0-5.668116-33.991701-11.327734-33.991701-16.995851 0-5.668116-33.991701-11.327734-33.991701-16.99585 0-7.393195-42.55761-13.052813-39.727801-16.995851 8.497925-5.668116-56.655668-11.327734-56.655668-16.995851 0-5.668116-45.319436-11.327734-45.319436-16.99585 0-1.784564-13.239768-6.033527-24.576-12.746888-33.991701v-144.46473h237.941908c2.804315 123.304896-0.033992 245.10566-8.497925 365.410788z" fill="#467CEC" p-id="9102"></path><path d="M1019.768741 297.427386v229.443983c-6.135502 3.543635-10.384465 9.211751-12.746888 16.995851-9.857593-19.519734-18.355519-16.689925-25.493776 8.497925l-25.493775-42.489626a195.222838 195.222838 0 0 0-16.995851 42.489626c-3.560631-36.982971-9.228747-39.81278-16.995851-8.497925-5.668116-45.319436-11.327734-45.319436-16.99585 0l-8.497926-25.493776c-13.069809 39.107452-30.06566 41.937261-50.987552 8.497925-3.254705 4.724846-7.503668 7.563154-12.746887 8.497926a2049.164216 2049.164216 0 0 1 8.497925-263.435685c8.837842 21.168332 15.925112 21.168332 21.244813 0 5.668116 22.663967 11.327734 22.663967 16.995851 0 5.668116 22.663967 11.327734 22.663967 16.99585 0 7.384697 27.72873 18.720929 30.558539 33.991702 8.497925h67.983402c6.016531 7.478174 13.103801 13.14629 21.244813 16.995851zM0.017704 263.435685c9.568664 25.72322 22.315552 28.553029 38.240664 8.497925 5.668116 22.663967 11.327734 22.663967 16.995851 0 5.668116 22.663967 11.327734 22.663967 16.99585 0 5.319701 21.168332 12.406971 21.168332 21.244813 0 32.920963 24.805444 62.663701 21.975635 89.228216-8.497925 4.248963 93.434689 5.659618 186.911867 4.248963 280.431535-10.962324-4.741842-18.041095-13.239768-21.244813-25.493776l-8.497926 16.995851c-5.668116-45.319436-11.327734-45.319436-16.99585 0-8.285477-20.208066-13.945095-17.369759-16.995851 8.497925l-8.497925-33.991701a195.01039 195.01039 0 0 1-16.995851 42.489626c-5.872066-20.318539-14.369992-20.318539-25.493776 0l-25.493776-25.493776c-5.668116 22.663967-11.327734 22.663967-16.99585 0-5.668116 22.663967-11.327734 22.663967-16.995851 0-3.254705 4.724846-7.503668 7.563154-12.746888 8.497926v-271.93361z" fill="#3572E7" p-id="9103"></path><path d="M739.337206 603.352697c-47.783834 98.779884-121.435353 172.422905-220.946058 220.946058a5752.245643 5752.245643 0 0 1-8.497925-441.892116c6.713361 9.415701 10.962324 20.751934 12.746888 33.991701 5.668116-45.319436 11.327734-45.319436 16.99585 0 5.668116-56.655668 11.327734-56.655668 16.995851 0 3.943037-48.225726 9.602656-51.055535 16.995851-8.497925 5.668116-33.991701 11.327734-33.991701 16.99585 0 5.668116-33.991701 11.327734-33.991701 16.995851 0 5.668116-45.319436 11.327734-45.319436 16.99585 0 9.857593-19.519734 18.355519-16.689925 25.493776 8.497925 13.197278-32.292116 24.525012-32.292116 33.991702 0 6.857826-33.558307 11.106788-33.558307 12.746888 0 13.800631 1.18971 23.709212-4.478407 29.742738-16.99585l8.497925 16.99585c4.248963 62.255801 5.659618 124.579585 4.248963 186.954357z" fill="#2A68E0" p-id="9104"></path><path d="M186.972061 543.86722c-2.506888 18.992863 0.331419 35.988714 8.497925 50.987552 6.59439 38.155685 19.341278 74.977195 38.240664 110.473029a1824.351602 1824.351602 0 0 0 97.726141 110.473029c-5.24322 0.934772-9.492183 3.773079-12.746888 8.497925l-25.493776-25.493776c-5.668116 22.663967-11.327734 22.663967-16.99585 0l-25.493776 25.493776c-5.668116-22.663967-11.327734-22.663967-16.995851 0-5.668116-22.663967-11.327734-22.663967-16.995851 0a37.832763 37.832763 0 0 0-12.746888-16.99585c-8.497925 11.327734-16.995851 11.327734-25.493775 0a37.832763 37.832763 0 0 0-12.746888 16.99585 37.832763 37.832763 0 0 0-12.746888-16.99585c-8.497925 11.327734-16.995851 11.327734-25.493776 0-8.837842 21.168332-15.925112 21.168332-21.244814 0-5.319701 21.168332-12.406971 21.168332-21.244813 0-8.497925 11.327734-16.995851 11.327734-25.493776 0-8.837842 21.168332-15.925112 21.168332-21.244813 0-5.668116 22.663967-11.327734 22.663967-16.995851 0l-8.497925 25.493775c-1.971519-10.511934-6.220481-19.009859-12.746888-25.493775v-271.93361c5.24322-0.934772 9.492183-3.773079 12.746888-8.497926 5.668116 22.663967 11.327734 22.663967 16.995851 0 5.668116 22.663967 11.327734 22.663967 16.99585 0l25.493776 25.493776c11.123784-20.318539 19.62171-20.318539 25.493776 0a195.01039 195.01039 0 0 0 16.995851-42.489626l8.497925 33.991701c3.050755-25.867685 8.710373-28.705992 16.995851-8.497925 5.668116-45.319436 11.327734-45.319436 16.99585 0l8.497926-16.995851c3.203718 12.254008 10.28249 20.751934 21.244813 25.493776z" fill="#2261DB" p-id="9105"></path><path d="M1019.768741 526.871369v271.93361c-6.135502 3.552133-10.384465 9.211751-12.746888 16.995851-15.593693-28.536033-34.008697-31.365842-55.236514-8.497925-21.967137-17.658689-40.382141-11.990573-55.236515 16.99585-23.437278-6.373444-46.092747-20.539485-67.983402-42.489626-10.231502 8.242988-14.480465 16.740913-12.746888 25.493776-8.837842-21.168332-15.925112-21.168332-21.244813 0-5.668116-22.663967-11.327734-22.663967-16.995851 0l-16.995851-16.995851h-33.991701c-10.231502 8.242988-14.480465 16.740913-12.746888 25.493776a376.950971 376.950971 0 0 0-16.99585-8.497925 1132.263568 1132.263568 0 0 1 80.73029-84.979254c23.369295-40.450124 38.95449-82.939751 46.738589-127.468879 8.225992-17.905129 11.064299-37.730788 8.497926-59.485477 5.24322-0.934772 9.492183-3.773079 12.746887-8.497926 20.921892 33.439336 37.917743 30.609527 50.987552-8.497925l8.497926 25.493776c5.668116-45.319436 11.327734-45.319436 16.99585 0 7.767104-31.314855 13.43522-28.485046 16.995851 8.497925a195.222838 195.222838 0 0 1 16.995851-42.489626l25.493775 42.489626c7.138257-25.187851 15.636183-28.01766 25.493776-8.497925 2.362423-7.7841 6.611386-13.452216 12.746888-16.995851z" fill="#2361DB" p-id="9106"></path><path d="M1019.768741 798.804979v220.946058H0.017704v-212.448132c6.526407 6.483917 10.775369 14.981842 12.746888 25.493775l8.497925-25.493775c5.668116 22.663967 11.327734 22.663967 16.995851 0 5.319701 21.168332 12.406971 21.168332 21.244813 0 8.497925 11.327734 16.995851 11.327734 25.493776 0 8.837842 21.168332 15.925112 21.168332 21.244813 0 5.319701 21.168332 12.406971 21.168332 21.244814 0 8.497925 11.327734 16.995851 11.327734 25.493776 0a37.832763 37.832763 0 0 1 12.746888 16.99585 37.832763 37.832763 0 0 1 12.746888-16.99585c8.497925 11.327734 16.995851 11.327734 25.493775 0a37.832763 37.832763 0 0 1 12.746888 16.99585c5.668116-22.663967 11.327734-22.663967 16.995851 0 5.668116-22.663967 11.327734-22.663967 16.995851 0l25.493776-25.493776c5.668116 22.663967 11.327734 22.663967 16.99585 0l25.493776 25.493776c3.254705-4.724846 7.503668-7.563154 12.746888-8.497925 53.621909 43.449892 113.107386 77.441593 178.456432 101.975104 67.838938-28.22161 130.154224-65.051618 186.954357-110.473029 5.523651 2.583369 11.191768 5.413178 16.99585 8.497925-1.733577-8.752863 2.515386-17.250788 12.746888-25.493776h33.991701l16.995851 16.995851c5.668116-22.663967 11.327734-22.663967 16.995851 0 5.319701-21.168332 12.406971-21.168332 21.244813 0-1.733577-8.752863 2.515386-17.250788 12.746888-25.493776 21.890656 21.950141 44.546124 36.116183 67.983402 42.489626 14.854373-28.986423 33.269378-34.654539 55.236515-16.99585 21.227817-22.867917 39.642822-20.038108 55.236514 8.497925 2.362423-7.7841 6.611386-13.443718 12.746888-16.995851z" fill="#0E52D0" p-id="9107"></path></svg>