<?xml version="1.0" standalone="no"?><!DOCTYPE svg PUBLIC "-//W3C//DTD SVG 1.1//EN" "http://www.w3.org/Graphics/SVG/1.1/DTD/svg11.dtd"><svg t="1730082896752" class="icon" viewBox="0 0 1024 1024" version="1.1" xmlns="http://www.w3.org/2000/svg" p-id="4113" xmlns:xlink="http://www.w3.org/1999/xlink" width="200" height="200"><path d="M946.344 547.098c8.3 7.812 12.45 18.15 12.45 31.006v91.064c0 23.278-11.558 34.912-34.668 34.912h-114.99c-22.948 0-34.424-11.634-34.424-34.912v-91.064h57.13v77.88h69.824v-74.952l-114.502-108.398c-8.3-7.972-12.452-18.146-12.452-30.518v-84.96c0-23.438 11.476-35.156 34.424-35.156h114.99c23.11 0 34.668 11.558 34.668 34.668v85.448h-57.128v-72.02h-69.824v69.092l114.502 107.91z m-358.154-83.496c2.44 11.718 3.662 20.916 3.662 27.588V704.08h-55.664V322h50.048l91.554 235.596c-2.442-11.72-3.664-20.912-3.664-27.588V322h55.664v382.08h-50.048l-91.552-240.478zM418.024 704.08h-116.456V322h116.456c22.62 0 40.606 6.47 53.954 19.408 13.344 12.94 20.02 30.64 20.02 53.102v237.548c0 22.462-6.676 40.082-20.02 52.856-13.348 12.78-31.334 19.166-53.954 19.166z m16.6-301.026c0-21.32-11.15-31.982-33.446-31.982h-42.48v283.936h41.014c23.274 0 34.912-10.822 34.912-32.472V403.054zM183.404 704.08H66.95V322h116.454c22.622 0 40.608 6.47 53.956 19.408 13.344 12.94 20.018 30.64 20.018 53.102v237.548c0 22.462-6.674 40.082-20.018 52.856-13.348 12.78-31.334 19.166-53.956 19.166z m16.602-301.026c0-21.32-11.15-31.982-33.448-31.982h-42.48v283.936h41.016c23.274 0 34.912-10.822 34.912-32.472V403.054z" p-id="4114"></path></svg>