<?xml version="1.0" standalone="no"?><!DOCTYPE svg PUBLIC "-//W3C//DTD SVG 1.1//EN" "http://www.w3.org/Graphics/SVG/1.1/DTD/svg11.dtd"><svg t="1730083668146" class="icon" viewBox="0 0 1024 1024" version="1.1" xmlns="http://www.w3.org/2000/svg" p-id="6338" xmlns:xlink="http://www.w3.org/1999/xlink" width="150" height="150"><path d="M193.536 165.888L246.272 266.24 148.48 603.648c-52.736 185.856-96.768 341.504-96.768 345.6 0 5.632 99.328 6.656 291.84 3.072 327.68-5.12 334.336-6.656 412.16-67.584C845.312 814.08 902.144 698.368 952.32 486.4c27.648-116.736 27.648-163.84 0-220.672-36.864-74.752-88.576-100.352-265.728-129.536C560.64 115.2 187.904 66.56 156.672 66.56c-13.824 0-9.728 12.288 36.864 99.328z m517.12 182.784c20.992 17.92 25.088 27.136 25.088 57.856 0 41.472-14.848 98.816-50.688 194.048-49.664 132.096-79.872 150.016-240.64 150.528-68.608 0-108.544-3.072-108.544-8.192 0-7.168 105.984-369.152 118.272-406.016 2.56-7.168 33.28-9.728 117.248-9.728 111.104 0 115.2 1.024 139.264 21.504z" fill="#2E8CFF" p-id="6339"></path></svg>