<?xml version="1.0" standalone="no"?><!DOCTYPE svg PUBLIC "-//W3C//DTD SVG 1.1//EN" "http://www.w3.org/Graphics/SVG/1.1/DTD/svg11.dtd"><svg t="1730795246903" class="icon" viewBox="0 0 1220 1024" version="1.1" xmlns="http://www.w3.org/2000/svg" p-id="3463" xmlns:xlink="http://www.w3.org/1999/xlink" width="178.7109375" height="150"><path d="M184.558516 828.649377v-77.928782c0-10.24 6.401191-18.46534 17.003163-18.465339h2.933879c10.597209 0 16.969823 8.239628 16.969823 18.465339v164.063852c0 40.007442-19.765581 71.841935-54.210083 92.121897a101.799888 101.799888 0 0 1-52.128745 14.21693h-7.320409c-40.016967 0-71.808595-19.77987-92.121898-54.200558a101.514121 101.514121 0 0 1-14.212167-52.138269v-7.310884c0-40.02173 19.775107-71.837172 54.191033-92.16a101.437916 101.437916 0 0 1 52.143032-14.21693h7.320409c27.081228 0 50.009302 10.497191 69.431963 27.547981zM38.374181 911.12186c0 28.900614 14.002605 50.628465 39.331126 64.488187 10.24 5.601042 21.356353 8.611126 33.039479 8.611125 28.367181 0 49.409191-13.335814 63.916651-37.421246 6.748874-11.183033 9.892316-23.418642 9.892316-36.425824 0-25.052279-11.906977-44.603535-32.053581-59.125283-12.240372-8.801637-26.019126-13.216744-41.04573-13.216745-30.920037 0-53.171795 15.621953-66.526661 43.369973-4.5056 9.382698-6.563126 19.33693-6.563125 29.719813z m311.12454-110.020465h5.115237c42.760335 0 75.28067 20.741953 95.889265 58.067945 8.239628 14.931349 12.649972 31.229619 12.649972 48.304223v7.310884c0 40.007442-19.727479 71.8848-54.224372 92.12666a102.042791 102.042791 0 0 1-52.119218 14.212167h-7.310884c-40.016967 0-71.822884-19.77987-92.121898-54.200558a101.523647 101.523647 0 0 1-14.226456-52.138269v-7.310884c0-40.026493 19.860837-71.737153 54.18627-92.145712a100.971163 100.971163 0 0 1 52.162084-14.226456z m-69.441488 110.020465c0 28.100465 13.812093 48.690009 37.459348 63.202233 11.125879 6.810791 23.337674 9.897079 36.378196 9.897079 27.719442 0 48.208967-14.050233 62.468762-37.449823 6.801265-11.154456 9.878028-23.409116 9.878028-36.397247 0-26.085805-12.564242-46.008558-34.044428-60.454102a68.631814 68.631814 0 0 0-39.045358-11.887926c-30.920037 0-53.171795 15.621953-66.521897 43.369973-4.515126 9.382698-6.572651 19.33693-6.572651 29.719813z m336.519739-70.141618c-5.572465-2.610009-16.002977-3.476837-22.023144-3.705451-30.834307-1.162121-53.143219 16.203014-66.231368 43.403311-4.524651 9.382698-6.582177 19.313116-6.582176 29.696 0 31.610642 16.598326 53.74333 44.770232 67.236317 10.306679 4.924726 23.613916 5.858233 34.877917 5.858232 9.906605 0 23.909209-6.067795 32.70132-10.24l1.524093-0.723944h6.82508l0.75252 0.152409c8.392037 1.747944 14.726549 7.067981 14.726549 16.098233v3.65306c0 22.470847-41.064781 27.61466-56.734362 28.710103-55.248372 3.824521-96.651312-26.543033-112.416149-79.286177-2.738605-9.158847-3.972167-18.255777-3.972168-27.800409v-7.301359c0-40.02173 19.860837-71.727628 54.18627-92.112372a100.59014 100.59014 0 0 1 52.152558-14.288372h7.315647c19.670326 0 37.787981 5.586753 54.029097 16.679293l1.333582 0.923982 0.843014 1.390735c1.752707 2.857674 3.262512 6.267833 3.262511 9.725618v3.653061c0 9.4208-7.04893 14.488409-15.555274 16.126809l-0.704893 0.123832h-2.181358c-5.505786 0-18.027163-5.70106-22.942363-8.015776z m119.707981 24.990363l43.269954-42.798438c4.048372-3.938828 19.403609-20.608595 25.447591-20.608595h6.610753l0.752521 0.157172c8.420614 1.747944 14.726549 7.077507 14.726549 16.126809v3.648298c0 6.172577-7.229916 13.34534-11.216372 17.622326-8.477767 8.987386-17.403237 17.679479-26.081042 26.481116l-44.589247 45.265563 57.420205 57.886958a1492.201377 1492.201377 0 0 1 15.721972 16.174437c1.833674 1.92893 4.53894 4.286512 6.077321 7.001302 1.652688 2.505228 2.667163 5.334326 2.667163 8.34441v3.810232l-0.214326 0.881117c-2.071814 8.420614-7.415665 15.212353-16.745972 15.212353h-2.938642c-6.105898 0-13.002419-6.906047-17.184148-10.859163-8.573023-8.125321-16.941247-16.669767-25.385675-24.971311l-28.338605-27.814698v44.455888c0 10.24-6.410716 18.470102-17.003162 18.470103h-2.857675c-10.601972 0-17.003163-8.230102-17.003163-18.470103v-250.503739c0-10.24 6.405953-18.432 17.003163-18.432h2.857675c10.587684 0 17.003163 8.192 17.003162 18.432v114.535591z m459.976038-63.407033h3.667348c11.068726 0 18.455814 7.45853 18.455814 18.46534 0 15.279033-14.607479 19.194047-27.243162 19.194046-16.574512 0-32.401265 10.0352-43.8272 21.289675-14.288372 14.050233-20.48 32.03453-20.48 51.809637v89.349953c0 10.24-6.396428 18.460577-17.003163 18.460577h-2.914828c-10.606735 0-17.003163-8.215814-17.003163-18.460577v-94.474716c0-36.278177 17.660428-65.893209 47.151628-86.66374 17.622326-12.40707 37.721302-18.955907 59.239591-18.955907z m-262.305935 177.061507c13.43107 4.691349 28.743442 4.019795 42.522195 1.619349 7.04893-3.000558 25.07133-10.859163 31.701135-9.706568l1.033526 0.176224 0.952558 0.466753c4.048372 1.96227 7.906233 4.738977 9.978046 8.858791 4.82947 9.654177 2.509991 19.360744-6.977488 24.842716l-3.15773 1.824149c-35.006512 20.203758-72.242009 17.403237-107.138977-1.46694-16.684056-9.020726-29.448335-22.40893-38.864372-38.731013l-2.20041-3.810233c-22.480372-38.921526-19.441712-79.862474 5.905861-116.878884 8.749247-12.792856 20.184707-22.670884 33.55386-30.405656l5.058084-2.91959c32.968037-19.032112 68.298419-17.727107 102.161861-1.024 18.208149 8.982623 32.958512 22.370828 43.122307 39.978865l1.828911 3.172018c7.382326 12.792856-2.181358 23.937786-12.04986 31.558252-11.459274 8.83974-23.028093 19.527442-34.006326 28.957767l-73.413656 63.488z m-31.696372-22.261284l110.973023-95.432037c-7.429953-9.363647-19.841786-16.112521-30.386605-20.137079-21.289674-8.111033-42.279293-5.381953-61.801972 5.882047-25.552372 14.755126-36.435349 38.245209-35.482791 67.488744 0.381023 11.516428 3.476837 22.61373 9.587498 32.41079 2.152781 3.453023 4.557991 6.696484 7.158475 9.787535zM703.088302 217.811944h108.905972v111.330233h55.057861c25.433302 0 51.581023-4.524651 75.666456-12.688075 11.835535-4.015033 25.114195-9.597023 36.787795-16.669767-15.374288-20.0704-23.223367-45.413209-25.528558-70.394047-3.143442-33.982512 3.714977-78.205023 26.70973-104.805209l11.449749-13.240558 13.640632 10.968707c34.292093 27.590847 63.230809 66.202791 68.322233 110.106195 41.355312-12.164167 89.911963-9.287442 126.356837 11.749805l14.955163 8.630177-7.86813 15.364762c-30.815256 60.2112-95.274865 78.852763-158.286586 75.552149-94.288967 234.805581-299.570009 346.031033-548.468689 346.031033-128.595349 0-246.569674-48.070847-313.7536-162.158735l-1.095441-1.905116-9.787535-19.917991c-22.708986-50.218865-30.253247-105.23386-25.13801-160.205991l1.538382-16.464967H245.679409V217.811944h108.90121V108.905972h217.816707V0h130.690976v217.811944" fill="#364548" p-id="3464"></path><path d="M1055.925363 259.000558c7.301358-56.753414-35.168447-101.328372-61.506679-122.498977-30.353265 35.092242-35.068428 127.06173 12.549953 165.783219-26.576372 23.604391-82.572502 44.998847-139.911739 44.998847H169.093735c-5.572465 59.853991 4.934251 114.973767 28.933953 162.149209l7.939572 14.526511a269.269135 269.269135 0 0 0 16.455442 24.690307c28.695814 1.8432 55.153116 2.476651 79.357619 1.943219h0.009525c47.565991-1.047814 86.377972-6.667907 115.792968-16.860279a8.387274 8.387274 0 0 1 5.491498 15.841042c-3.915014 1.362158-7.991963 2.62906-12.20227 3.834046h-0.014289c-23.161451 6.667907-47.999405 11.063963-80.04346 13.040521 1.905116 0.03334-1.981321 0.285767-1.990847 0.285768-1.095442 0.071442-2.462363 0.228614-3.557804 0.285767-12.61187 0.714419-26.223926 0.857302-40.1408 0.857302-15.221879 0-30.210381-0.285767-46.970642-1.143069l-0.476279 0.285767c58.106047 65.36454 149.084874 104.56707 263.067981 104.56707 241.225823 0 445.835312-106.934177 536.442642-347.002642 64.278623 6.596465 126.056781-9.79706 154.157247-64.654884-44.760707-25.828614-102.323795-17.593749-135.468056-0.933507" fill="#22A0C8" p-id="3465"></path><path d="M1055.925363 259.000558c7.301358-56.753414-35.168447-101.328372-61.506679-122.498977-30.353265 35.092242-35.068428 127.06173 12.549953 165.783219-26.576372 23.604391-82.572502 44.998847-139.911739 44.998847H210.425233c-2.848149 91.66467 31.167702 161.244279 91.350325 203.309246h0.014288c47.565991-1.047814 86.377972-6.667907 115.792968-16.860279a8.387274 8.387274 0 0 1 5.491498 15.841042c-3.915014 1.362158-7.991963 2.62906-12.20227 3.834046h-0.014289c-23.161451 6.667907-50.133135 11.635498-82.17719 13.612056-0.009526 0-0.776335-0.738233-0.785861-0.738232 82.096223 42.112595 201.132651 41.912558 337.610419-10.463852 153.028465-58.791888 295.435907-170.793674 394.835349-298.898455a120.165209 120.165209 0 0 0-4.367479 2.076576" fill="#37B1D9" p-id="3466"></path><path d="M170.403502 420.01146c4.286512 32.063107 13.716837 62.082977 27.624186 89.426159l7.939572 14.526511a268.773805 268.773805 0 0 0 16.455442 24.690307c28.700577 1.8432 55.153116 2.476651 79.367144 1.943219 47.565991-1.047814 86.377972-6.667907 115.792968-16.860279a8.387274 8.387274 0 0 1 5.491498 15.841042c-3.915014 1.362158-7.991963 2.62906-12.20227 3.834046h-0.014289c-23.161451 6.667907-49.990251 11.34973-82.034307 13.335814-1.095442 0.066679-3.019609 0.080967-4.129339 0.142884-12.602344 0.704893-26.076279 1.14307-39.997916 1.14307a918.361302 918.361302 0 0 1-47.532652-1.14307C295.269586 632.260465 386.810423 671.553488 500.79353 671.553488c206.514605 0 386.186121-78.386009 490.472186-251.58013H170.403502" fill="#1B81A5" p-id="3467"></path><path d="M216.707353 420.01146c12.345153 56.296186 42.007814 100.494884 85.082493 130.586196 47.565991-1.047814 86.377972-6.667907 115.792968-16.860279a8.387274 8.387274 0 0 1 5.491498 15.841042c-3.915014 1.362158-7.991963 2.62906-12.20227 3.834046h-0.014289c-23.161451 6.667907-50.557023 11.34973-82.605841 13.335814 82.09146 42.10307 200.784967 41.498195 337.205581-10.921079 82.558214-31.720186 162.015851-78.938493 233.30054-135.810977H216.707353" fill="#1D91B4" p-id="3468"></path><path d="M263.825642 235.96294h94.388986V330.347163H263.825642V235.96294z m7.858604 7.86813h7.449005V322.44093H271.636619V243.83107z m14.002605 0h7.749061V322.44093H285.686851V243.83107z m14.297898 0h7.74906V322.44093h-7.74906V243.83107z m14.307423 0h7.744298V322.44093h-7.744298V243.83107z m14.302661 0h7.744297V322.44093H328.599595V243.83107z m14.297897 0h7.453768V322.44093H342.887967V243.83107z m29.834121-116.774103h94.398512v94.384224h-94.398512V127.056967z m7.86813 7.868131h7.444242v78.652725h-7.444242V134.92986z m14.002605 0h7.744298v78.652725H394.611874V134.92986z m14.297898 0h7.744297v78.652725H408.900246V134.92986z m14.30266 0h7.744298v78.652725h-7.744298V134.92986z m14.302661 0h7.74906v78.652725h-7.74906V134.92986z m14.297897 0h7.458531v78.652725h-7.458531V134.92986z" fill="#23A3C2" p-id="3469"></path><path d="M372.731614 235.96294h94.398512V330.347163h-94.398512V235.96294z m7.86813 7.86813h7.444242V322.44093h-7.444242V243.83107z m14.002605 0h7.744297V322.44093H394.611874V243.83107z m14.297897 0h7.744298V322.44093H408.900246V243.83107z m14.302661 0h7.744298V322.44093h-7.744298V243.83107z m14.30266 0h7.749061V322.44093h-7.749061V243.83107z m14.297898 0h7.45853V322.44093h-7.45853V243.83107z" fill="#34BBDE" p-id="3470"></path><path d="M481.642349 235.96294h94.388986V330.347163h-94.388986V235.96294z m7.858604 7.86813h7.444242V322.44093h-7.444242V243.83107z m14.002605 0h7.744298V322.44093h-7.744298V243.83107z m14.302661 0h7.744297V322.44093h-7.744297V243.83107z m14.30266 0h7.744298V322.44093H532.16127V243.83107z m14.297898 0h7.753823V322.44093h-7.753823V243.83107z m14.30266 0h7.449005V322.44093h-7.449005V243.83107z" fill="#23A3C2" p-id="3471"></path><path d="M481.642349 127.056967h94.388986v94.384224h-94.388986V127.056967z m7.858604 7.868131h7.444242v78.652725h-7.444242V134.92986z m14.002605 0h7.744298v78.652725h-7.744298V134.92986z m14.302661 0h7.744297v78.652725h-7.744297V134.92986z m14.30266 0h7.744298v78.652725H532.16127V134.92986z m14.297898 0h7.753823v78.652725h-7.753823V134.92986z m14.30266 0h7.449005v78.652725h-7.449005V134.92986z m29.834121 101.037842h94.388986V330.347163H590.553084V235.96294z m7.86813 7.86813h7.444242V322.44093H598.36406V243.83107z m14.002605 0h7.744298V322.44093h-7.744298V243.83107z m14.297898 0h7.744297V322.44093h-7.744297V243.83107z m14.30266 0h7.749061V322.44093h-7.749061V243.83107z m14.302661 0h7.74906V322.44093h-7.74906V243.83107z m14.30266 0h7.449005V322.44093h-7.449005V243.83107z" fill="#34BBDE" p-id="3472"></path><path d="M590.553084 127.056967h94.388986v94.384224H590.553084V127.056967z m7.86813 7.868131h7.444242v78.652725h-7.444242V134.92986z m14.002605 0h7.744297v78.652725h-7.744297V134.92986z m14.297897 0h7.744298v78.652725h-7.744298V134.92986z m14.302661 0h7.74906v78.652725h-7.74906V134.92986z m14.30266 0h7.749061v78.652725h-7.749061V134.92986z m14.302661 0h7.449004v78.652725h-7.449004V134.92986z" fill="#23A3C2" p-id="3473"></path><path d="M590.553084 18.098605h94.388986v94.398511H590.553084V18.098605z m7.86813 7.858604h7.444242v78.662251h-7.444242V26.004837z m14.002605 0h7.744297v78.662251h-7.744297V26.004837z m14.297897 0h7.744298v78.662251h-7.744298V26.004837z m14.302661 0h7.74906v78.662251h-7.74906V26.004837z m14.30266 0h7.749061v78.662251h-7.749061V26.004837z m14.302661 0h7.449004v78.662251h-7.449004V26.004837z" fill="#34BBDE" p-id="3474"></path><path d="M699.454293 235.96294h94.388986V330.347163h-94.388986V235.96294z m7.858605 7.86813h7.453767V322.44093h-7.449005V243.83107z m14.002604 0h7.749061V322.44093h-7.744298V243.83107z m14.307424 0h7.74906V322.44093h-7.74906V243.83107z m14.297897 0h7.749061V322.44093h-7.749061V243.83107z m14.307423 0h7.744298V322.44093h-7.744298V243.83107z m14.297898 0h7.449005V322.44093h-7.449005V243.83107z" fill="#23A3C2" p-id="3475"></path><path d="M461.214739 483.385153a26.04294 26.04294 0 1 1-0.009525 52.081117 26.04294 26.04294 0 0 1 0.009525-52.081117" fill="#D3ECEC" p-id="3476"></path><path d="M461.214739 490.772242a18.574884 18.574884 0 0 1 6.748875 1.262139 7.61094 7.61094 0 0 0 3.800707 14.193117c2.881488 0 5.381953-1.595535 6.677432-3.953117a18.646326 18.646326 0 1 1-17.227014-11.497376M0.633828 429.422735h1211.30627c-26.371572-6.686958-83.444093-15.726735-74.032819-50.29507-47.961302 55.496037-163.616149 38.935814-192.807293 11.573582-32.501284 47.142102-221.726958 29.219721-234.924651-7.506159-40.750437 47.818419-167.016781 47.818419-207.767219 0-13.207219 36.673488-202.42813 54.64826-234.934177 7.501396-29.186381 27.366995-144.788837 43.927219-192.797767-11.564056C84.087446 413.696 27.019688 422.735777 0.633828 429.427498" fill="#364548" p-id="3477"></path><path d="M530.432377 671.077209c-64.488186-30.60093-99.875721-72.203907-119.574624-117.612353-23.956837 6.834605-52.747907 11.206847-86.206511 13.083386-12.602344 0.704893-25.861953 1.066865-39.769303 1.066865-16.041079 0-32.944223-0.476279-50.690381-1.414549 59.139572 59.058605 131.8912 104.609935 266.601972 105.438661 9.944707 0 19.813209-0.190512 29.638847-0.56201" fill="#BDD9D7" p-id="3478"></path><path d="M434.809828 595.32026c-8.920707-12.111777-17.622326-27.338419-23.937786-41.912558-23.956837 6.84413-52.757433 11.216372-86.2208 13.097675 22.985228 12.478512 55.853247 24.033042 110.163349 28.814883" fill="#D3ECEC" p-id="3479"></path></svg>